# xmcd CD database file
#
# Track frame offsets:
#	150
#	18205
#	29087
#	43352
#	57143
#	72462
#	86047
#	102225
#	112644
#	125535
#	141698
#	158330
#	172906
#	184973
#	199557
#	223483
#	233031
#	249400
#	264762
#	276418
#
# Disc length: 3935 seconds
#
# Revision: 0
# Processed by: cddbd v1.5.1PL0 Copyright (c) Steve Scherf et al.
# Submitted via: CDex 1.50beta8
#
DISCID=230f5d14
DTITLE=はちみつくまさん - 淫台野夜行 〜はじめてのサントラ〜
DYEAR=2004
DGENRE=Game
TTITLE0=恋のじゅばくふ
TTITLE1=ほおずきみたいに紅い太陽
TTITLE2=ヴワル魔法図書館 〜きょうもげんきにおべんきょうっ〜
TTITLE3=ルーネイトエルフ. サマーアクセス
TTITLE4=剣を執れ、不思議の国のアリス
TTITLE5=紅門を開いたのは彼女なのか？
TTITLE6=妖孤幻葬
TTITLE7=異より来たる少女
TTITLE8=おてんば恋娘、恋に溺れる
TTITLE9=メイドと血の懐中時計は０時に止まる
TTITLE10=Dim. Dream -black on black-
TTITLE11=Mirror of witching Dream
TTITLE12=ラクトガール、チャイルドプレイ〜幼女密室
TTITLE13=亡き王女の為のセプテット show time...
TTITLE14=紅 -スカーレット-
TTITLE15=紅楼、破壊活動。
TTITLE16=久しき世界より儚い永遠
TTITLE17=Master Spark !!
TTITLE18=Scarlet mist
TTITLE19=Border of Life (Dance in CherryStorm)
EXTD=YEAR: 2004
EXTT0=
EXTT1=
EXTT2=
EXTT3=
EXTT4=
EXTT5=
EXTT6=
EXTT7=
EXTT8=
EXTT9=
EXTT10=
EXTT11=
EXTT12=
EXTT13=
EXTT14=
EXTT15=
EXTT16=
EXTT17=
EXTT18=
EXTT19=
PLAYORDER=
